<?xml version="1.0" encoding="UTF-8"?>
<svg version="1.1" viewBox="0 0 1818 1023" width="1280" height="1280" xmlns="http://www.w3.org/2000/svg">
<path transform="translate(0)" d="m0 0h1818v1023h-1818z" fill="#FBFBFB"/>
<path transform="translate(1422,492)" d="m0 0h14l16 4 9 5 7 6 6 10 2 7v7l-4 13-7 8-4 5-13 10-27 18-2 1-1 3v7l3 3 3 1h12l16-4 28-10 31-7 16-1 24 2 9 2 10 6 6 9 1 2v15l-3 6-9 9-14 9h-2v3l6 1h11l22-3 10-1 27-1 18-2 38-3 50-2h73l14 1v392h-1818v-396l21-7 35-6 28-3h68l35 3 69 8 25 3 14 1h40l23-3 19-5 19-8 7-3 22-12 9-7 9-6 15-15 5-6 10-7 9-3h7l10 4 6 5 2 8v12l-4 11-4 6-5 6-10 7-16 8-4 3-1 4 1 2h6l14-8 20-14 13-9 14-8 25-9 4-1h17l8 4 5 9v9l-5 8-10 8-8 3-24 6-16 6-7 5-1 6 8-1 33-12 13-6 20-7h10l10 5 4 5 2 6v8l-4 10-7 7-11 6-3 3 11-1 14-7 19-13 18-12 25-14 9-6 16-8 31-15 28-10 9-4 25-10 32-9 26-5 26-3 15-1 39-1h18l46 3 23 4 13 3 27 6 18 6 15 4 9 3 23 6 28 8 15 3 25 2 18 1h20l14-3 21-10 21-14 18-13 17-12 14-13 24-16 17-10 16-7 14-4z" fill="#097FD3"/>
<path transform="translate(525,761)" d="m0 0h19l34 1 18 3 25 6 21 8 19 10 20 13 16 8 15 4 20 2h32l18-6 23-5 26-3 14-4 15-2h26l22 4 20 6 10 5 23 8 5 3 16 5 15 5 10 2h24l32-3 12-2 8-3 30-8 21-10 16-5 12-2h26l27 3 18 4 15 6 9 3 8 3 17 7 10 4 10 5 15 5 8 3 21 8 21 5 39 8 21 2 23 1 47 1 32 1 43-11 21-7 9-4 10-2h16l12 3 8 6 9 14 7-1h31l16 3 6 4 5 6 3 7 4 1 21-3 16 1 13 5h8l8-2 10-5 8-5 5-1v144h-1818v-243l12-3 19-4 12-1h14l16 1h23l21 4 25 8 16 4 28 10 25 6 23 7 26 5 18 2h14l37-4 26-5 25-8 24-7 27-12 24-8 16-3 17-5 26-5z" fill="#064A7B"/>
<path transform="translate(1422,492)" d="m0 0h14l16 4 9 5 7 6 6 10 2 7v7l-4 13-7 8-4 5-13 10-27 18-2 1-1 3v7l3 3 3 1h12l16-4 28-10 31-7 16-1 24 2 9 2 10 6 6 9 1 2v15l-3 6-9 9-14 9h-2v3l6 1h11l22-3 10-1 27-1 18-2 38-3 50-2h73l14 1v44l-30 3-29 6-9 1h-43l-51-5-12-2-36-3-50-5-40-3-34-1h-31l-46 1-34 2-31 3-43 7-39 8-41 10-15 3h-26l-15-3-30-8-14-2h-11l-29 5-34 11-16 2h-9l-1-1v-14l-3-9-8-9-16-10-10-3h-13l-27 3-20 6-18 8-19 8-27 9-21 8-13 3v-3l16-7 8-9 5-10 1-7-3-10-6-8-8-6-14-6-16-2-10 2-52 17-25 11-14 8-10 6-10 4-18 4-14 5-36 5-24-1-48-1-38-3-30-4-67-6-60-7-22-3-69-13-15-2-54-1-6-1h-21l-34 2-29 4-42 8-29 9-16 3-14 5v-60l21-7 35-6 28-3h68l35 3 69 8 25 3 14 1h40l23-3 19-5 19-8 7-3 22-12 9-7 9-6 15-15 5-6 10-7 9-3h7l10 4 6 5 2 8v12l-4 11-4 6-5 6-10 7-16 8-4 3-1 4 1 2h6l14-8 20-14 13-9 14-8 25-9 4-1h17l8 4 5 9v9l-5 8-10 8-8 3-24 6-16 6-7 5-1 6 8-1 33-12 13-6 20-7h10l10 5 4 5 2 6v8l-4 10-7 7-11 6-3 3 11-1 14-7 19-13 18-12 25-14 9-6 16-8 31-15 28-10 9-4 25-10 32-9 26-5 26-3 15-1 39-1h18l46 3 23 4 13 3 27 6 18 6 15 4 9 3 23 6 28 8 15 3 25 2 18 1h20l14-3 21-10 21-14 18-13 17-12 14-13 24-16 17-10 16-7 14-4z" fill="#46AEF3"/>
<path transform="translate(1170,905)" d="m0 0h21l9 4 10 8 5 6 1 2v13l-4 11-4 8h12l3-1h31l9 4 6 4 7 8 2 5 1 14 8-1 14-3h9l9 2 7 4h7l12-3 82-10 39-3 16-1 19-2 36-4 51-2h80l56 3 11 1 47 2 30 3 6 1v45h-1818v-50l10-4 29-9 19-7 18-3 19-2 32-8 10-1h12l16 1h41l13 2 21 1 29 4 9 3 21 3 51 8 17 1 21 3 54 5h36l34-3 35-5 22-1 15-3 16-5 38-5 34-9 74-14 45-6 13-1h36l24-1 22 3 35 6 36 10 31 9 13 5 32 3 17-2 21-5 10-2 16-9 21-10 16-9 14-6 15-4z" fill="#0870B8"/>
<path transform="translate(361,470)" d="m0 0h14l6 4 7 8 9 21 4 16 3 21v13l-3 12-5 8-3 2-9-1-4-4v-10l2-10-4-2-4-8-8-4-7-4-5-4-4-6-3-5-8-4-1-15 5-12 6-9 9-6z" fill="#7CC9FC"/>
<path transform="translate(1555,480)" d="m0 0h12l7 6 4 7 1 4v18l-2 8 5-1h7l6 4 1 2v9l-2 5-6 4h-9l-5-4-2-5-3 1-6 8-12 9-9 4-18 5h-6l-6-4-1-2v-7l2-5 11-8 6-5 7-12 4-14 1-1v-7l-1-1v-8l5-6z" fill="#7CC9FD"/>
<path transform="translate(435,485)" d="m0 0 8 1 6 4 5 8 1 4v19l-5 26-8 19-5 9-2 3h-2v2l-11 8-6 8-4 4-5 1-7-3-3-3v-9l9-12 12-26 1-6 2-36 2-10 5-8z" fill="#7CC9FD"/>
<path transform="translate(1502,477)" d="m0 0h11l5 3 5 6 1 4v16l-3 13-5 12-3 9-3 6-8 4-7 3-10 10-7 3-8-1-4-5v-6l9-10 4-4h2l2-5 4-11 2-8-1-10v-11l5-12 4-4z" fill="#46AEF3"/>
<path transform="translate(232,987)" d="m0 0h14l10 3 9 5 10 8 5 6 4 9v5h-83v-11l4-8 9-9 10-6z" fill="#052E4D"/>
<path transform="translate(1362,592)" d="m0 0h7l9 3 5 5 4 5 2 10 1 9-4 6-7 7-7 2h-12l-11-4-8-7-4-7 1-8 5-10 8-7 7-3z" fill="#7BC8FC"/>
<path transform="translate(948,692)" d="m0 0h11l9 5 6 9 1 2v9l-4 8-8 9-8 4h-13l-8-4-6-7-2-5v-7l5-10 4-5 10-7z" fill="#46AEF3"/>
<path transform="translate(1328,945)" d="m0 0h16l7 4 6 8 1 10-5 8-3 3h-2v2l-9 3h-12l-6-3-3-2v-2l-3-1-4-10 1-9 4-6 8-4z" fill="#0870B8"/>
<path transform="translate(646,712)" d="m0 0h10l10 5 6 9-2 11-4 7-7 7-7 3h-10l-6-3-5-6-2-7 1-11 8-11z" fill="#46AEF3"/>
<path transform="translate(1502,477)" d="m0 0h11l5 3 5 6 1 4v16l-3 13-5 12-3 9-3 6-8 4-7 3-10 10-7 3-8-1-4-5v-6l9-10 4-4h2l2-5 4-11 2-8-1-10v-11l5-12 4-4zm5 3-8 5-3 5-2 9-1 16-4 13v11l3 6 7 1 6-4 7-8 5-8 5-19v-12l-3-10-8-4z" fill="#7CC9FD"/>
<path transform="translate(722 1e3)" d="m0 0h11l7 3 5 5 3 6v5h-80l4-3 15-7 18-6z" fill="#052F4E"/>
<path transform="translate(946,556)" d="m0 0h30l20 3 17 2 2 2-7 2h-8l-16-3h-75l-17 2-27 7-36 6-24 5-16 6-4-1 8-6 11-4 22-5 30-5 25-6 14-3 8-1z" fill="#FBFBFB"/>
<path transform="translate(339,580)" d="m0 0h8l7 4 7 8 2 6-1 9-6 9-6 3h-8l-7-4-5-8-1-9 3-9 4-7z" fill="#7CC9FD"/>
<path transform="translate(1607,595)" d="m0 0 9 1 9 2 7 8 1 7-4 7-10 7-3 1h-11l-6-3-4-6v-10l5-9 5-4z" fill="#7CC9FD"/>
<path transform="translate(1259,911)" d="m0 0h5l4 3 5 3 3 4v10l-3 7-5 3-6 4h-5l-9-6-4-4-2-5v-7h2l2-5 5-4 3-2z" fill="#0870B8"/>
<path transform="translate(1383,927)" d="m0 0h10l3 1v2l4 2 3 7v9l-8 9-4 2-9-1-5-3-5-8v-10l7-8z" fill="#0870B8"/>
<path transform="translate(950,701)" d="m0 0 9 1 4 5 1 2v9l-7 6-6 3-10 1-6-6v-9l4-6 5-4z" fill="#7CC9FD"/>
<path transform="translate(894,710)" d="m0 0h6l7 4 6 8 1 8-5 6-2 1h-7l-7-3-3-3v-2h-2l-1-2v-12l4-4z" fill="#46AEF3"/>
<path transform="translate(1698,641)" d="m0 0h52l15 2 16 1h8l7 1-3 2h-109l-5 1-21 1h-12l3-2 16-2 20-3z" fill="#FBFBFB"/>
<path transform="translate(1326,568)" d="m0 0h3l-1 4-7 6-18 11-23 11-31 12-13 2-4-1 1-4 17-3 20-8 28-13 18-10z" fill="#FBFBFB"/>
<path transform="translate(318,499)" d="m0 0 7 1 5 3 2 4v8l-5 9-3 2-9-1-5-6-1-2v-8l6-8z" fill="#7CC9FD"/>
<path transform="translate(62,628)" d="m0 0h23l1 4-1 1-31 2-30 5-14 4-10 4v-6l12-5 19-5z" fill="#7CC9FD"/>
<path transform="translate(645,719)" d="m0 0h8l6 3 2 2v7l-4 6-8 6h-7l-4-3-1-3v-9l3-6z" fill="#7CC9FD"/>
<path transform="translate(273,595)" d="m0 0h7l8 5 2 3v8l-5 5-2 1h-9l-8-5-1-2v-9l5-5z" fill="#7CC9FD"/>
<path transform="translate(596,715)" d="m0 0h8l5 4 3 8-1 6-4 4-3 1h-8l-6-4-2-4v-6l5-7z" fill="#46AEF3"/>
<path transform="translate(1401,615)" d="m0 0h7l8 5 2 4v6l-6 7-8 1-9-6-1-2v-9l5-5z" fill="#7CC9FD"/>
<path transform="translate(1461,519)" d="m0 0h3l1 4-4 10-7 11-11 14-10 10-14 9-5 3-5 2h-3l2-4 11-7 7-4 15-15 11-15 7-14z" fill="#FBFBFB"/>
<path transform="translate(1451,621)" d="m0 0h8l5 4 2 5-1 6-4 5-2 1h-9l-6-5-1-2v-7l3-5z" fill="#7CC9FD"/>
<path transform="translate(851,730)" d="m0 0h6l6 4 3 4v7l-4 5-4 2-9-1-4-4-1-9 5-7z" fill="#46AEF3"/>
<path transform="translate(296,1009)" d="m0 0h11l7 4 6 8v2h-34l1-5 4-6z" fill="#052F4F"/>
<path transform="translate(1695,603)" d="m0 0 9 1 4 3 1 8-7 7-6 1-10-6-1-5 1-3 5-3z" fill="#7CC9FD"/>
<path transform="translate(168,1014)" d="m0 0h12l11 4 6 4v1h-50l3-3 14-5z" fill="#05304F"/>
<path transform="translate(962,820)" d="m0 0 9 1 16 4 21 7 4 1h8l22-3 28-2h7l-2 2-20 3-24 2h-24l-16-4-21-7-8-3z" fill="#0870B8"/>
<path transform="translate(551,720)" d="m0 0h6l6 4 2 5-1 6-5 5h-7l-5-5-1-7 3-7z" fill="#46AEF3"/>
<path transform="translate(955,548)" d="m0 0h16l30 2 23 4 13 3 27 6 18 6v1l-9-1-24-6-28-6-11-2-21-3-27-2-7-1z" fill="#7CC9FD"/>
<path transform="translate(1077,577)" d="m0 0 8 1 24 8 19 4v4h-10l-16-4-26-9z" fill="#7CC9FD"/>
<path transform="translate(1761,642)" d="m0 0 38 1 19 1v5h-50l-4-2 29-1-4-1h-16l-12-2z" fill="#7CC9FD"/>
<path transform="translate(1660,644)" d="m0 0h11v1l-11 2-11 1h28v1l-16 2-16 1-13 3h-6l-1-4 17-5z" fill="#7CC9FD"/>
<path transform="translate(497,567)" d="m0 0h3v9l-4 10-7 8-11 6-6 1-1-3 12-6 5-4 5-8z" fill="#FBFBFB"/>
<path transform="translate(560,578)" d="m0 0h17l8 4 5 9v9l-5 8h-2l1-4 1-3v-7l-3-6-5-5-6-2h-14l-1 1h-6l3-2z" fill="#7CC9FD"/>
<path transform="translate(757,592)" d="m0 0h5l-1 5-18 11-10 6-4 1-1-5 12-6 9-7z" fill="#7CC9FD"/>
<path transform="translate(770,578)" d="m0 0 2 1-4 3-30 11-16 7-22 11-5 1 5-4 37-18 28-10z" fill="#7CC9FD"/>
<path transform="translate(1817,875)" d="m0 0 1 4-12 6-4 3-9 4-4-1 7-7 6-4z" fill="#0870B8"/>
<path transform="translate(605,634)" d="m0 0 4 1-1 6-7 9-5 3-5-1 2-4 7-6z" fill="#7CC9FD"/>
<path transform="translate(1561,605)" d="m0 0h3v6l-6 10-7 7-5 3h-3l1-3 8-7 7-11z" fill="#FBFBFB"/>
<path transform="translate(1149,600)" d="m0 0h10l11 2-1 4h-11l-9-3z" fill="#7CC9FD"/>
<path transform="translate(1339,849)" d="m0 0h11l13 5 6 2 2 2-10-1-18-5z" fill="#0870B8"/>
<path transform="translate(1542,580)" d="m0 0h9l9 2 10 6 2 4-4-2-11-5-15-4z" fill="#7CC9FD"/>
<path transform="translate(1549,628)" d="m0 0 2 1-6 5-5 2h-6l-1-4 10-3v2z" fill="#7CC9FD"/>
<path transform="translate(786,584)" d="m0 0 3 1-3 2h6l-1 2-12 4h-4v-4z" fill="#7CC9FD"/>
<path transform="translate(577,598)" d="m0 0h3l-1 5-9 7-4-1 1-3 3-2h3l2-4z" fill="#FBFBFB"/>
<path transform="translate(1606,650)" d="m0 0h6v4l-1 1h-10l1-4z" fill="#7CC9FD"/>
<path transform="translate(573,588)" d="m0 0h5l1 5-4 1v2l-4-1v-5z" fill="#ADDCFC"/>
<path transform="translate(1e3 560)" d="m0 0h15l2 2v3l-2 1h-12l4-2 6-1-1-1-12-1z" fill="#7CC9FD"/>
<path transform="translate(1643,851)" d="m0 0 6 2 5 6 1 6-4-4-4-6z" fill="#0870B8"/>
<path transform="translate(1414,589)" d="m0 0h3l1 8-6 2v-8h3z" fill="#7CC9FD"/>
<path transform="translate(1050,569)" d="m0 0h7l1 4-1 1h-6z" fill="#7CC9FD"/>
<path transform="translate(1405,578)" d="m0 0 3 1-2 3 4-2 3 1-6 3h-5v-4z" fill="#7CC9FD"/>
<path transform="translate(1082,570)" d="m0 0 9 1 8 3v1l-10-1-7-3z" fill="#7CC9FD"/>
<path transform="translate(1452,507)" d="m0 0 5 1-1 4-5 1-1-3z" fill="#FBFBFB"/>
<path transform="translate(1349,546)" d="m0 0h3l1 3-2 3h-4v-5z" fill="#7CC9FD"/>
<path transform="translate(1338,556)" d="m0 0 4 1-1 5h-4v-5z" fill="#7CC9FD"/>
<path transform="translate(498,564)" d="m0 0 3 2v8h-1v-7h-3l-1 6h-1v-7z" fill="#7CC9FD"/>
</svg>
